<?xml version="1.0" standalone="no"?>
<!DOCTYPE svg PUBLIC "-//W3C//DTD SVG 20010904//EN"
 "http://www.w3.org/TR/2001/REC-SVG-20010904/DTD/svg10.dtd">
<svg version="1.0" xmlns="http://www.w3.org/2000/svg"
 width="2334.000000pt" height="1414.000000pt" viewBox="0 0 2334.000000 1414.000000"
 preserveAspectRatio="xMidYMid meet">

<g transform="translate(0.000000,1414.000000) scale(0.100000,-0.100000)"
fill="#FFFFFF" stroke="none">
<path d="M11840 14022 c-252 -202 -423 -392 -556 -617 -408 -695 -384 -1566
63 -2226 68 -101 3972 -5139 3981 -5139 15 0 287 225 360 298 544 541 755
1403 536 2199 -59 216 -161 440 -281 615 -42 63 -3907 4933 -3947 4974 -8 9
-48 -18 -156 -104z"/>
<path d="M9480 12028 c-181 -145 -418 -375 -524 -508 -221 -278 -367 -581
-422 -875 -25 -134 -25 -393 0 -518 55 -279 196 -559 398 -788 89 -102 1410
-1582 1438 -1612 16 -17 24 -12 167 102 253 202 400 377 522 626 209 422 255
908 134 1420 -74 314 -233 659 -420 914 -77 103 -1114 1371 -1122 1371 -4 0
-81 -59 -171 -132z"/>
<path d="M7280 10347 c-454 -369 -735 -734 -874 -1136 -64 -185 -80 -281 -80
-496 -1 -210 15 -311 76 -484 62 -177 193 -403 310 -536 177 -202 1470 -1645
1478 -1650 16 -10 272 200 376 307 132 135 218 256 305 429 333 664 233 1571
-251 2277 -55 81 -1150 1431 -1160 1431 -3 0 -84 -64 -180 -142z"/>
<path d="M17624 4599 c-1104 -67 -1921 -746 -2133 -1774 -72 -353 -73 -789 -1
-1138 171 -831 714 -1396 1535 -1598 243 -59 370 -73 695 -73 223 0 330 4 440
17 234 29 455 78 611 136 100 38 98 4 24 360 -36 173 -67 316 -68 317 -2 2
-38 -10 -80 -26 -93 -37 -284 -83 -427 -105 -146 -22 -469 -31 -600 -16 -378
44 -664 173 -896 405 -215 214 -342 476 -405 832 -30 170 -33 507 -6 684 107
695 511 1138 1158 1270 355 72 834 31 1166 -101 42 -16 79 -26 83 -22 4 4 46
150 94 323 65 237 83 316 73 322 -34 22 -187 74 -305 104 -171 43 -364 71
-582 84 -191 11 -186 11 -376 -1z"/>
<path d="M21098 4600 c-212 -15 -409 -59 -617 -137 -138 -51 -252 -111 -387
-202 -503 -339 -814 -872 -920 -1576 -21 -140 -30 -532 -15 -692 47 -498 212
-936 481 -1272 84 -105 230 -250 327 -324 252 -193 571 -322 920 -373 144 -21
464 -24 603 -5 496 67 889 252 1204 567 330 331 529 761 613 1329 25 170 26
671 1 832 -121 788 -502 1357 -1103 1649 -330 161 -715 231 -1107 204z m267
-660 c417 -47 739 -305 933 -746 70 -158 116 -323 149 -534 27 -173 24 -546
-5 -736 -64 -412 -205 -720 -436 -949 -189 -189 -382 -279 -653 -307 -203 -21
-406 13 -587 100 -396 190 -657 615 -738 1202 -17 123 -17 504 0 636 48 380
161 678 348 920 236 305 601 457 989 414z"/>
<path d="M895 4560 c-116 -4 -275 -13 -355 -20 -155 -12 -498 -56 -524 -66
-15 -6 -16 -208 -16 -2200 l0 -2194 405 0 405 0 0 836 0 835 73 -8 c140 -16
601 -9 732 11 430 65 765 217 1005 456 147 147 240 298 304 493 96 293 101
653 14 927 -170 535 -593 833 -1298 914 -164 19 -484 26 -745 16z m570 -631
c138 -17 230 -44 344 -100 142 -70 228 -155 295 -290 64 -130 80 -215 73 -394
-6 -161 -20 -225 -78 -343 -64 -131 -187 -250 -334 -324 -72 -37 -202 -76
-308 -93 -151 -25 -537 -18 -629 11 -17 5 -18 50 -18 754 0 616 2 749 13 753
12 5 144 22 237 30 85 9 323 6 405 -4z"/>
<path d="M9710 4116 l-375 -92 -3 -362 -2 -362 -230 0 -230 0 0 -310 0 -310
230 0 230 0 0 -812 c0 -831 5 -963 40 -1134 88 -429 327 -654 760 -715 167
-24 561 7 695 54 l40 14 -1 307 c-1 169 -4 310 -7 313 -4 3 -27 0 -52 -6 -75
-19 -260 -30 -338 -20 -164 21 -264 117 -314 301 -15 56 -17 152 -20 881 l-4
817 386 0 385 0 0 310 0 310 -385 0 -385 0 0 455 0 455 -22 -1 c-13 -1 -192
-43 -398 -93z"/>
<path d="M4257 3355 c-294 -37 -603 -129 -793 -237 -47 -26 -54 -33 -48 -52 4
-11 40 -129 79 -261 40 -132 76 -240 81 -240 5 0 54 24 110 52 214 110 432
163 700 170 202 6 297 -8 414 -63 95 -45 148 -89 199 -165 52 -78 80 -170 88
-285 l6 -91 -214 -6 c-647 -19 -1128 -182 -1415 -479 -137 -142 -219 -295
-261 -488 -26 -120 -25 -356 1 -460 117 -465 484 -740 988 -740 361 0 659 119
887 355 41 42 77 72 80 66 4 -6 17 -87 31 -181 l24 -170 368 0 c202 0 368 3
368 8 0 4 -8 61 -16 127 -13 98 -18 288 -24 1060 -7 943 -9 973 -46 1160 -19
92 -74 256 -111 329 -73 144 -208 301 -328 383 -134 90 -295 155 -481 194
-130 27 -522 35 -687 14z m851 -1982 c-4 -254 -6 -284 -26 -345 -29 -86 -107
-203 -180 -268 -61 -54 -206 -131 -283 -149 -189 -44 -379 -9 -496 93 -77 68
-133 212 -133 346 0 318 242 520 695 579 122 17 140 18 288 19 l139 2 -4 -277z"/>
<path d="M8130 3359 c-30 -5 -91 -22 -137 -38 -244 -84 -459 -289 -573 -548
-22 -48 -43 -89 -48 -91 -10 -3 -19 116 -27 378 -3 96 -8 190 -11 208 l-5 32
-355 0 -356 0 6 -47 c17 -135 26 -765 26 -1905 l0 -1268 410 0 410 0 0 888 c0
744 3 902 15 980 72 443 389 694 826 652 54 -5 110 -12 124 -16 l25 -6 0 385
0 385 -22 6 c-40 12 -251 15 -308 5z"/>
<path d="M12390 3355 c-424 -58 -755 -274 -900 -588 -84 -181 -113 -417 -71
-590 51 -212 184 -388 410 -539 125 -84 256 -147 461 -223 409 -151 520 -251
520 -467 0 -174 -111 -292 -318 -335 -105 -21 -357 -13 -496 17 -134 29 -290
82 -415 141 -57 27 -106 47 -109 45 -7 -7 -152 -549 -152 -569 0 -39 283 -145
511 -191 178 -36 355 -50 543 -43 546 19 940 215 1120 557 69 131 97 239 103
400 11 291 -70 503 -264 691 -144 139 -319 239 -613 349 -189 70 -343 143
-413 195 -186 138 -158 417 52 524 80 41 164 53 326 48 125 -4 169 -10 265
-35 120 -32 204 -64 302 -113 43 -22 60 -26 63 -17 2 7 36 130 75 273 39 143
73 268 76 278 7 21 -72 58 -233 111 -268 86 -583 117 -843 81z"/>
</g>
</svg>
